<svg xmlns="http://www.w3.org/2000/svg" viewBox="0 0 100 100" x="0px" y="0px"><title>1</title><path d="M13.519,32.37l16.567-25.6a5,5,0,1,1,8.4,5.432L21.914,37.8A5,5,0,1,1,13.519,32.37ZM92,32H88.561a7,7,0,0,1-12.155,6.889L71.949,32h-43.9l-4.457,6.888A7,7,0,0,1,11.437,32H8a3.008,3.008,0,0,0-3,3v6a3.008,3.008,0,0,0,3,3H92a3.008,3.008,0,0,0,3-3V35A3.008,3.008,0,0,0,92,32ZM78.086,37.8a5,5,0,1,0,8.4-5.432L69.914,6.767a5,5,0,1,0-8.4,5.432ZM10,46H90L83.451,89.034A3.612,3.612,0,0,1,80,92H19a3.521,3.521,0,0,1-3.389-2.975ZM73,83a1,1,0,0,0,2,0V53a1,1,0,0,0-2,0V83ZM61,83a1,1,0,0,0,2,0V53a1,1,0,0,0-2,0V83ZM49,83a1,1,0,0,0,2,0V53a1,1,0,0,0-2,0V83ZM37,83a1,1,0,0,0,2,0V53a1,1,0,0,0-2,0V83ZM25,83a1,1,0,0,0,2,0V53a1,1,0,0,0-2,0V83Z"></path></svg>