<svg xmlns="http://www.w3.org/2000/svg" xmlns:xlink="http://www.w3.org/1999/xlink" version="1.1" x="0px" y="0px" viewBox="0 0 100 100" enable-background="new 0 0 100 100" xml:space="preserve"><path d="M37.103,39.091l7.397,8.013l0.003-0.004c0.58,0.626,1.406,1.023,2.326,1.023c0.993,0,1.878-0.457,2.459-1.171h0.001  l13.739-16.868h-0.001c0.443-0.547,0.711-1.243,0.711-2.002c0-1.751-1.42-3.17-3.17-3.17c-0.993,0-1.879,0.456-2.46,1.171  l-0.001-0.002L46.679,40.116l-4.917-5.325l-0.002,0.002c-0.579-0.627-1.405-1.021-2.328-1.021c-1.75,0-3.17,1.419-3.17,3.17  c0,0.829,0.322,1.582,0.844,2.147L37.103,39.091z"></path><path d="M87.335,13.703c0-1.146-0.929-2.074-2.074-2.074H14.739c-1.146,0-2.074,0.928-2.074,2.074v49.779h74.67V13.703z   M83.187,57.26H16.813V15.775h66.373V57.26z"></path><path d="M87.335,67.629h-74.67L5.139,86.444c-0.425,1.065,0.158,1.927,1.305,1.927h87.114c1.146,0,1.729-0.861,1.304-1.927  L87.335,67.629z M40.216,84.223l0.979-4.148h17.611l0.979,4.148H40.216z"></path></svg>