<svg xmlns="http://www.w3.org/2000/svg" xmlns:xlink="http://www.w3.org/1999/xlink" viewBox="0 0 60 54" version="1.1" x="0px" y="0px"><title>Combined Shape</title><desc>Created with Sketch.</desc><g stroke="none" stroke-width="1" fill="none" fill-rule="evenodd"><g transform="translate(-1258.000000, -1404.000000)" fill="#000000"><g transform="translate(254.000000, 1403.000000)"><g transform="translate(975.000000, 0.000000)"><g transform="translate(29.000000, 0.000000)"><g transform="translate(0.000000, 1.000000)"><path d="M0,0 L55.9934444,0 C58.206204,0 60,1.79535615 60,4 L60,8 L4.0065556,8 C1.79379604,8 0,6.20464385 0,4 L0,0 L0,0 Z M0,23 L55.9934444,23 C58.206204,23 60,24.7953562 60,27 L60,31 L4.0065556,31 C1.79379604,31 0,29.2046438 0,27 L0,23 L0,23 Z M0,46 L55.9934444,46 C58.206204,46 60,47.7953562 60,50 L60,54 L4.0065556,54 C1.79379604,54 0,52.2046438 0,50 L0,46 L0,46 Z"></path></g></g></g></g></g></g></svg>